<svg xmlns="http://www.w3.org/2000/svg" viewBox="0 0 80 80">
  <rect width="80" height="80" rx="16" fill="#7a5c2e"/>
  <!-- כתר -->
  <path d="M23 27 L30 18 L36.5 25 L40 15 L43.5 25 L50 18 L57 27 Z" fill="#f3e7cc"/>
  <rect x="23" y="27" width="34" height="4.2" rx="2.1" fill="#f3e7cc"/>
  <circle cx="30" cy="18" r="2.2" fill="#f3e7cc"/>
  <circle cx="40" cy="15" r="2.4" fill="#f3e7cc"/>
  <circle cx="50" cy="18" r="2.2" fill="#f3e7cc"/>
  <!-- ספר פתוח -->
  <path d="M13 41 C24 35, 35 35, 40 40 C45 35, 56 35, 67 41 L67 61 C56 55, 45 55, 40 60 C35 55, 24 55, 13 61 Z" fill="#f7f5f0"/>
  <line x1="40" y1="40" x2="40" y2="60" stroke="#7a5c2e" stroke-width="1.6"/>
  <g stroke="#caa86f" stroke-width="1.5" stroke-linecap="round">
    <line x1="19" y1="44" x2="34" y2="42.5"/>
    <line x1="19" y1="48.5" x2="34" y2="47"/>
    <line x1="19" y1="53" x2="34" y2="51.5"/>
    <line x1="46" y1="42.5" x2="61" y2="44"/>
    <line x1="46" y1="47" x2="61" y2="48.5"/>
    <line x1="46" y1="51.5" x2="61" y2="53"/>
  </g>
</svg>
